<?xml version="1.0" standalone="no"?>
<!DOCTYPE svg PUBLIC "-//W3C//DTD SVG 20010904//EN"
 "http://www.w3.org/TR/2001/REC-SVG-20010904/DTD/svg10.dtd">
<svg version="1.0" xmlns="http://www.w3.org/2000/svg"
 width="404.000000pt" height="404.000000pt" viewBox="0 0 404.000000 404.000000"
 preserveAspectRatio="xMidYMid meet">
<metadata>
Created by potrace 1.14, written by Peter Selinger 2001-2017
</metadata>
<g transform="translate(0.000000,404.000000) scale(0.100000,-0.100000)"
fill="#000000" stroke="none">
<path d="M3355 3623 c-67 -24 -109 -55 -144 -106 -39 -57 -61 -127 -61 -195 0
-85 -25 -188 -64 -267 -36 -71 -166 -230 -224 -272 -38 -28 -145 -83 -161 -83
-6 0 -42 15 -79 34 -94 47 -191 75 -299 85 -222 20 -425 -32 -600 -154 l-66
-47 -61 23 c-87 31 -149 74 -254 174 -111 106 -162 196 -191 340 -21 109 -41
152 -92 205 -56 57 -111 82 -194 88 -127 8 -238 -55 -291 -165 -36 -72 -39
-183 -7 -254 52 -116 136 -167 300 -179 197 -15 312 -69 458 -215 59 -59 102
-112 124 -154 l33 -63 -35 -72 c-49 -97 -73 -175 -87 -276 -6 -47 -14 -95 -16
-107 -2 -12 -33 -51 -69 -87 -118 -118 -319 -197 -500 -196 -98 0 -156 12
-255 56 -91 39 -202 40 -276 2 -224 -117 -218 -438 10 -544 37 -17 69 -24 117
-24 124 0 195 41 289 168 99 133 181 188 361 243 119 36 232 43 337 20 62 -14
64 -15 89 -65 86 -170 234 -312 415 -395 115 -53 193 -72 334 -78 191 -9 359
35 513 134 l73 46 56 -13 c127 -28 238 -96 352 -216 96 -101 145 -193 171
-319 30 -154 82 -230 184 -276 69 -31 181 -32 246 -3 66 31 114 78 146 142 38
77 40 193 5 263 -56 115 -142 164 -308 178 -188 15 -284 59 -440 205 -84 78
-143 166 -171 252 l-16 52 36 83 c50 118 71 222 70 354 0 180 -45 334 -139
477 -65 97 -65 104 -4 225 109 218 288 353 520 393 175 31 268 146 258 319 -5
86 -28 141 -82 194 -75 75 -211 105 -311 70z m168 -160 c63 -32 86 -127 47
-191 -25 -41 -99 -77 -138 -67 -71 17 -122 77 -122 142 0 30 32 89 59 110 41
32 97 35 154 6z m-1165 -988 c191 -45 357 -209 407 -402 46 -178 -9 -376 -143
-513 -252 -255 -656 -211 -853 93 -74 114 -102 258 -75 387 65 312 361 506
664 435z m-1918 -887 c130 -67 86 -261 -61 -261 -147 0 -191 202 -56 263 54
25 64 25 117 -2z"/>
</g>
</svg>
